<svg width="152" height="30" viewBox="0 0 152 30" fill="none" xmlns="http://www.w3.org/2000/svg">
<path d="M17.4064 13.511H3.1802L4.90409 16.4971H23.5217C23.6238 16.4971 23.7239 16.5135 23.8199 16.5482C24.1794 16.6748 24.4224 17.0159 24.4224 17.3959V18.3538C24.4224 18.7174 24.1242 19.0135 23.7627 19.0135H6.35836L8.08225 21.9997H25.027C26.563 21.9997 27.8212 20.7415 27.8212 19.2055V17.1017C27.8212 16.346 27.521 15.625 26.9858 15C27.5148 14.3831 27.8212 13.6642 27.8212 12.8982V11.0334C27.8212 9.50354 26.657 8.16365 25.0556 8.01046C24.9698 8.00229 24.8841 8.00024 24.7983 8.00024H23.5748H18.8872H0L1.72185 10.9864H17.4064H23.4584H23.5237C23.6259 10.9864 23.7259 11.0028 23.8219 11.0375C24.1814 11.1641 24.4245 11.5052 24.4245 11.8851V12.8431C24.4245 13.2066 24.1263 13.5028 23.7648 13.5028H17.4105L17.4064 13.511Z" fill="white"/>
<path d="M61.5696 1.54368L61.5512 1.32104C61.5471 1.26998 61.4736 1.26589 61.4634 1.31696C60.6995 5.23451 55.8199 8.57608 52.4048 8.6537C51.4611 8.67617 50.7075 9.4462 50.7075 10.3898V11.6664L48.1768 13.9152C47.9603 14.1072 47.8377 14.383 47.8377 14.671V17.1567C47.8377 17.3303 48.044 17.4243 48.1747 17.3099L50.7095 15.0979V18.276C50.7095 18.7601 50.5175 19.2238 50.1764 19.5649L48.1645 21.5767C47.9827 21.7585 47.8724 22.0016 47.8561 22.261L47.8398 22.5163C47.7233 24.3873 47.0105 25.0225 45.8748 25.2002C45.6563 25.2349 44.7698 25.2349 44.5513 25.2002C43.4156 25.0225 42.7028 24.3873 42.5864 22.5163L42.57 22.261C42.5537 22.0036 42.4434 21.7606 42.2616 21.5767L40.2497 19.5649C39.9086 19.2238 39.7166 18.7601 39.7166 18.276V15.0979L42.2514 17.3099C42.3821 17.4243 42.5884 17.3303 42.5884 17.1567V14.671C42.5884 14.383 42.4659 14.1072 42.2494 13.9152L39.7187 11.6664V10.3898C39.7187 9.4462 38.965 8.67617 38.0213 8.6537C34.6083 8.57608 29.7266 5.23451 28.9627 1.31696C28.9525 1.26589 28.879 1.26998 28.8749 1.32104L28.8565 1.54368C28.7238 3.25531 28.9648 4.9792 29.6 6.57441C30.1004 7.83056 30.7847 8.8845 31.6425 9.72602C32.6863 10.7473 33.9771 11.4458 35.4927 11.8176C35.9339 11.9258 36.2423 12.32 36.2423 12.7735V18.4925C36.2423 19.7589 36.7448 20.9722 37.6394 21.8668L38.9609 23.1883C39.1018 23.3292 39.1958 23.509 39.2285 23.7051C39.4613 25.1001 40.0026 26.2296 40.8421 27.0732C41.849 28.0842 43.2277 28.6377 44.9455 28.7194H45.4806C47.1984 28.6377 48.5771 28.0842 49.5841 27.0732C50.4235 26.2296 50.9648 25.0981 51.1977 23.7051C51.2303 23.509 51.3263 23.3292 51.4652 23.1883L52.7867 21.8668C53.6814 20.9722 54.1838 19.7589 54.1838 18.4925V12.7735C54.1838 12.32 54.4943 11.9258 54.9334 11.8176C56.451 11.4479 57.7399 10.7473 58.7836 9.72602C59.6435 8.88655 60.3257 7.8326 60.8261 6.57441C61.4613 4.9792 61.7023 3.25531 61.5696 1.54368Z" fill="white"/>
<path d="M62.605 17.7737V8.00232H66.0058V17.7676C66.0058 18.4519 66.5654 19.0115 67.2497 19.0115H79.6784V21.9977H66.8309C66.1651 21.9977 65.5135 21.8343 64.9212 21.532C64.3166 21.2215 63.7876 20.766 63.3689 20.1962C62.8562 19.4976 62.605 18.6398 62.605 17.7737Z" fill="white"/>
<path d="M97.7517 19.0115V21.9977H84.9042C84.2383 21.9977 83.5868 21.8343 82.9944 21.532C82.4532 21.2542 81.9732 20.86 81.579 20.38C80.9805 19.6488 80.6782 18.7194 80.6782 17.7738V8.00232H84.079V17.7676C84.079 18.4519 84.6387 19.0115 85.3229 19.0115H97.7517Z" fill="white"/>
<path d="M98.7515 8.00134H102.152V21.9988H98.7515V8.00134Z" fill="white"/>
<path d="M116.421 18.9993H118.298C118.661 18.9993 118.957 18.7011 118.957 18.3395V17.2856C118.957 17.1079 118.853 16.8607 118.716 16.7464C118.565 16.6197 118.394 16.5258 118.21 16.4951H106.173C106.087 16.4951 106 16.4951 105.916 16.4849C104.317 16.3317 103.152 14.9918 103.152 13.462V10.7965C103.152 9.26051 104.411 8.00232 105.947 8.00232H107.568H112.086H122.358V10.9885H107.213C106.849 10.9885 106.553 11.2867 106.553 11.6482V12.6062C106.553 12.9861 106.796 13.3272 107.156 13.4538C107.252 13.4885 107.352 13.5049 107.454 13.5049H119.337C119.425 13.5049 119.513 13.5049 119.601 13.5151C121.198 13.6703 122.36 15.0082 122.36 16.538V19.2035C122.36 20.7395 121.102 21.9977 119.566 21.9977H113.426H112.762H103.154V19.2485C103.154 19.2485 103.154 19.2403 103.154 19.2362C103.154 19.1055 103.261 18.9972 103.393 18.9972H116.423L116.421 18.9993Z" fill="white"/>
<path d="M133.775 13.511H148.001L146.277 16.4971H127.66C127.558 16.4971 127.458 16.5135 127.362 16.5482C127.002 16.6748 126.759 17.0159 126.759 17.3959V18.3538C126.759 18.7174 127.057 19.0135 127.419 19.0135H144.823L143.099 21.9997H126.155C124.619 21.9997 123.36 20.7415 123.36 19.2055V17.1017C123.36 16.346 123.661 15.625 124.196 15C123.667 14.3831 123.36 13.6642 123.36 12.8982V11.0334C123.36 9.50354 124.525 8.16365 126.126 8.01046C126.212 8.00229 126.298 8.00024 126.383 8.00024H127.607H132.294H151.182L149.46 10.9864H133.775H127.723H127.658C127.556 10.9864 127.456 11.0028 127.36 11.0375C127 11.1641 126.757 11.5052 126.757 11.8851V12.8431C126.757 13.2066 127.055 13.5028 127.417 13.5028H133.771L133.775 13.511Z" fill="white"/>
</svg>
